<mxfile host="Electron" modified="2023-12-27T10:17:23.839Z" agent="Mozilla/5.0 (Windows NT 10.0; Win64; x64) AppleWebKit/537.36 (KHTML, like Gecko) draw.io/21.2.8 Chrome/112.0.5615.165 Electron/24.2.0 Safari/537.36" etag="i4jhz0Z7DSnaqIhXHoyT" version="21.2.8" type="device">
  <diagram name="Page-1" id="hVvvGBImzzeIShNOH6aR">
    <mxGraphModel dx="2496" dy="1232" grid="1" gridSize="10" guides="1" tooltips="1" connect="1" arrows="1" fold="1" page="1" pageScale="1" pageWidth="827" pageHeight="1169" math="0" shadow="0">
      <root>
        <mxCell id="0" />
        <mxCell id="1" parent="0" />
        <mxCell id="w7mX2GBIEuvkQ30eatzn-45" value="" style="rounded=0;whiteSpace=wrap;html=1;" vertex="1" parent="1">
          <mxGeometry x="-368" y="840" width="220" height="180" as="geometry" />
        </mxCell>
        <mxCell id="w7mX2GBIEuvkQ30eatzn-9" value="" style="rounded=0;whiteSpace=wrap;html=1;" vertex="1" parent="1">
          <mxGeometry x="100" y="300" width="350" height="200" as="geometry" />
        </mxCell>
        <mxCell id="w7mX2GBIEuvkQ30eatzn-2" value="&lt;font face=&quot;Verdana&quot; style=&quot;font-size: 16px;&quot;&gt;&lt;b&gt;p&lt;sub&gt;1&lt;/sub&gt;&lt;/b&gt;&lt;/font&gt;" style="rounded=0;whiteSpace=wrap;html=1;fillColor=#cce5ff;strokeColor=#1b1e22;" vertex="1" parent="1">
          <mxGeometry x="120" y="360" width="60" height="60" as="geometry" />
        </mxCell>
        <mxCell id="w7mX2GBIEuvkQ30eatzn-3" value="&lt;font face=&quot;Verdana&quot;&gt;&lt;span style=&quot;font-size: 16px;&quot;&gt;&lt;b&gt;16&lt;/b&gt;&lt;/span&gt;&lt;/font&gt;" style="rounded=0;whiteSpace=wrap;html=1;fillColor=#d5e8d4;strokeColor=#121311;" vertex="1" parent="1">
          <mxGeometry x="180" y="360" width="60" height="60" as="geometry" />
        </mxCell>
        <mxCell id="w7mX2GBIEuvkQ30eatzn-4" value="&lt;font face=&quot;Verdana&quot; style=&quot;&quot;&gt;&lt;b style=&quot;&quot;&gt;&lt;span style=&quot;font-size: 16px;&quot;&gt;p&lt;/span&gt;&lt;span style=&quot;font-size: 13.3333px;&quot;&gt;&lt;sub&gt;2&lt;/sub&gt;&lt;/span&gt;&lt;/b&gt;&lt;/font&gt;" style="rounded=0;whiteSpace=wrap;html=1;fillColor=#cce5ff;strokeColor=#1b1e22;" vertex="1" parent="1">
          <mxGeometry x="240" y="360" width="60" height="60" as="geometry" />
        </mxCell>
        <mxCell id="w7mX2GBIEuvkQ30eatzn-5" value="&lt;font face=&quot;Verdana&quot;&gt;&lt;span style=&quot;font-size: 16px;&quot;&gt;&lt;b&gt;34&lt;/b&gt;&lt;/span&gt;&lt;/font&gt;" style="rounded=0;whiteSpace=wrap;html=1;fillColor=#d5e8d4;strokeColor=#121311;" vertex="1" parent="1">
          <mxGeometry x="300" y="360" width="60" height="60" as="geometry" />
        </mxCell>
        <mxCell id="w7mX2GBIEuvkQ30eatzn-6" value="&lt;font face=&quot;Verdana&quot; style=&quot;&quot;&gt;&lt;b style=&quot;&quot;&gt;&lt;span style=&quot;font-size: 16px;&quot;&gt;p&lt;/span&gt;&lt;span style=&quot;font-size: 11.1111px;&quot;&gt;3&lt;/span&gt;&lt;/b&gt;&lt;/font&gt;" style="rounded=0;whiteSpace=wrap;html=1;fillColor=#cce5ff;strokeColor=#1b1e22;" vertex="1" parent="1">
          <mxGeometry x="360" y="360" width="60" height="60" as="geometry" />
        </mxCell>
        <mxCell id="w7mX2GBIEuvkQ30eatzn-7" value="&lt;font face=&quot;Verdana&quot;&gt;&lt;span style=&quot;font-size: 16px;&quot;&gt;&lt;b&gt;data&lt;/b&gt;&lt;/span&gt;&lt;/font&gt;" style="rounded=0;whiteSpace=wrap;html=1;fillColor=#fff2cc;strokeColor=#141005;" vertex="1" parent="1">
          <mxGeometry x="180" y="420" width="60" height="60" as="geometry" />
        </mxCell>
        <mxCell id="w7mX2GBIEuvkQ30eatzn-8" value="&lt;font face=&quot;Verdana&quot;&gt;&lt;span style=&quot;font-size: 16px;&quot;&gt;&lt;b&gt;data&lt;/b&gt;&lt;/span&gt;&lt;/font&gt;" style="rounded=0;whiteSpace=wrap;html=1;fillColor=#fff2cc;strokeColor=#141005;" vertex="1" parent="1">
          <mxGeometry x="300" y="420" width="60" height="60" as="geometry" />
        </mxCell>
        <mxCell id="w7mX2GBIEuvkQ30eatzn-10" value="&lt;font size=&quot;1&quot; face=&quot;Verdana&quot;&gt;&lt;b style=&quot;font-size: 16px;&quot;&gt;Page1&lt;/b&gt;&lt;/font&gt;" style="text;html=1;align=center;verticalAlign=middle;resizable=0;points=[];autosize=1;strokeColor=none;fillColor=none;" vertex="1" parent="1">
          <mxGeometry x="100" y="300" width="80" height="30" as="geometry" />
        </mxCell>
        <mxCell id="w7mX2GBIEuvkQ30eatzn-11" value="" style="rounded=0;whiteSpace=wrap;html=1;" vertex="1" parent="1">
          <mxGeometry x="-350" y="571" width="350" height="200" as="geometry" />
        </mxCell>
        <mxCell id="w7mX2GBIEuvkQ30eatzn-12" value="&lt;font face=&quot;Verdana&quot; style=&quot;font-size: 16px;&quot;&gt;&lt;b&gt;p&lt;sub&gt;1&lt;/sub&gt;&lt;/b&gt;&lt;/font&gt;" style="rounded=0;whiteSpace=wrap;html=1;fillColor=#cce5ff;strokeColor=#1b1e22;" vertex="1" parent="1">
          <mxGeometry x="-330" y="631" width="60" height="60" as="geometry" />
        </mxCell>
        <mxCell id="w7mX2GBIEuvkQ30eatzn-13" value="&lt;font face=&quot;Verdana&quot;&gt;&lt;span style=&quot;font-size: 16px;&quot;&gt;&lt;b&gt;7&lt;/b&gt;&lt;/span&gt;&lt;/font&gt;" style="rounded=0;whiteSpace=wrap;html=1;fillColor=#d5e8d4;strokeColor=#121311;" vertex="1" parent="1">
          <mxGeometry x="-270" y="631" width="60" height="60" as="geometry" />
        </mxCell>
        <mxCell id="w7mX2GBIEuvkQ30eatzn-14" value="&lt;font face=&quot;Verdana&quot; style=&quot;&quot;&gt;&lt;b style=&quot;&quot;&gt;&lt;span style=&quot;font-size: 16px;&quot;&gt;p&lt;/span&gt;&lt;span style=&quot;font-size: 13.3333px;&quot;&gt;&lt;sub&gt;2&lt;/sub&gt;&lt;/span&gt;&lt;/b&gt;&lt;/font&gt;" style="rounded=0;whiteSpace=wrap;html=1;fillColor=#cce5ff;strokeColor=#1b1e22;" vertex="1" parent="1">
          <mxGeometry x="-210" y="631" width="60" height="60" as="geometry" />
        </mxCell>
        <mxCell id="w7mX2GBIEuvkQ30eatzn-15" value="&lt;font face=&quot;Verdana&quot;&gt;&lt;span style=&quot;font-size: 16px;&quot;&gt;&lt;b&gt;11&lt;/b&gt;&lt;/span&gt;&lt;/font&gt;" style="rounded=0;whiteSpace=wrap;html=1;fillColor=#d5e8d4;strokeColor=#121311;" vertex="1" parent="1">
          <mxGeometry x="-150" y="631" width="60" height="60" as="geometry" />
        </mxCell>
        <mxCell id="w7mX2GBIEuvkQ30eatzn-16" value="&lt;font face=&quot;Verdana&quot; style=&quot;&quot;&gt;&lt;b style=&quot;&quot;&gt;&lt;span style=&quot;font-size: 16px;&quot;&gt;p&lt;/span&gt;&lt;span style=&quot;font-size: 11.1111px;&quot;&gt;3&lt;/span&gt;&lt;/b&gt;&lt;/font&gt;" style="rounded=0;whiteSpace=wrap;html=1;fillColor=#cce5ff;strokeColor=#1b1e22;" vertex="1" parent="1">
          <mxGeometry x="-90" y="631" width="60" height="60" as="geometry" />
        </mxCell>
        <mxCell id="w7mX2GBIEuvkQ30eatzn-17" value="&lt;font face=&quot;Verdana&quot;&gt;&lt;span style=&quot;font-size: 16px;&quot;&gt;&lt;b&gt;data&lt;/b&gt;&lt;/span&gt;&lt;/font&gt;" style="rounded=0;whiteSpace=wrap;html=1;fillColor=#fff2cc;strokeColor=#141005;" vertex="1" parent="1">
          <mxGeometry x="-270" y="691" width="60" height="60" as="geometry" />
        </mxCell>
        <mxCell id="w7mX2GBIEuvkQ30eatzn-18" value="&lt;font face=&quot;Verdana&quot;&gt;&lt;span style=&quot;font-size: 16px;&quot;&gt;&lt;b&gt;data&lt;/b&gt;&lt;/span&gt;&lt;/font&gt;" style="rounded=0;whiteSpace=wrap;html=1;fillColor=#fff2cc;strokeColor=#141005;" vertex="1" parent="1">
          <mxGeometry x="-150" y="691" width="60" height="60" as="geometry" />
        </mxCell>
        <mxCell id="w7mX2GBIEuvkQ30eatzn-19" value="&lt;font size=&quot;1&quot; face=&quot;Verdana&quot;&gt;&lt;b style=&quot;font-size: 16px;&quot;&gt;Page2&lt;/b&gt;&lt;/font&gt;" style="text;html=1;align=center;verticalAlign=middle;resizable=0;points=[];autosize=1;strokeColor=none;fillColor=none;" vertex="1" parent="1">
          <mxGeometry x="-350" y="571" width="80" height="30" as="geometry" />
        </mxCell>
        <mxCell id="w7mX2GBIEuvkQ30eatzn-20" value="" style="endArrow=classic;html=1;rounded=0;exitX=0;exitY=0.5;exitDx=0;exitDy=0;entryX=0.5;entryY=0;entryDx=0;entryDy=0;" edge="1" parent="1" source="w7mX2GBIEuvkQ30eatzn-9" target="w7mX2GBIEuvkQ30eatzn-11">
          <mxGeometry width="50" height="50" relative="1" as="geometry">
            <mxPoint x="-70" y="660" as="sourcePoint" />
            <mxPoint x="-20" y="610" as="targetPoint" />
          </mxGeometry>
        </mxCell>
        <mxCell id="w7mX2GBIEuvkQ30eatzn-21" value="" style="rounded=0;whiteSpace=wrap;html=1;" vertex="1" parent="1">
          <mxGeometry x="100" y="571" width="350" height="200" as="geometry" />
        </mxCell>
        <mxCell id="w7mX2GBIEuvkQ30eatzn-22" value="&lt;font face=&quot;Verdana&quot; style=&quot;font-size: 16px;&quot;&gt;&lt;b&gt;p&lt;sub&gt;1&lt;/sub&gt;&lt;/b&gt;&lt;/font&gt;" style="rounded=0;whiteSpace=wrap;html=1;fillColor=#cce5ff;strokeColor=#1b1e22;" vertex="1" parent="1">
          <mxGeometry x="120" y="631" width="60" height="60" as="geometry" />
        </mxCell>
        <mxCell id="w7mX2GBIEuvkQ30eatzn-23" value="&lt;font face=&quot;Verdana&quot;&gt;&lt;span style=&quot;font-size: 16px;&quot;&gt;&lt;b&gt;25&lt;/b&gt;&lt;/span&gt;&lt;/font&gt;" style="rounded=0;whiteSpace=wrap;html=1;fillColor=#d5e8d4;strokeColor=#121311;" vertex="1" parent="1">
          <mxGeometry x="180" y="631" width="60" height="60" as="geometry" />
        </mxCell>
        <mxCell id="w7mX2GBIEuvkQ30eatzn-24" value="&lt;font face=&quot;Verdana&quot; style=&quot;&quot;&gt;&lt;b style=&quot;&quot;&gt;&lt;span style=&quot;font-size: 16px;&quot;&gt;p&lt;/span&gt;&lt;span style=&quot;font-size: 13.3333px;&quot;&gt;&lt;sub&gt;2&lt;/sub&gt;&lt;/span&gt;&lt;/b&gt;&lt;/font&gt;" style="rounded=0;whiteSpace=wrap;html=1;fillColor=#cce5ff;strokeColor=#1b1e22;" vertex="1" parent="1">
          <mxGeometry x="240" y="631" width="60" height="60" as="geometry" />
        </mxCell>
        <mxCell id="w7mX2GBIEuvkQ30eatzn-25" value="&lt;font face=&quot;Verdana&quot;&gt;&lt;span style=&quot;font-size: 16px;&quot;&gt;&lt;b&gt;31&lt;/b&gt;&lt;/span&gt;&lt;/font&gt;" style="rounded=0;whiteSpace=wrap;html=1;fillColor=#d5e8d4;strokeColor=#121311;" vertex="1" parent="1">
          <mxGeometry x="300" y="631" width="60" height="60" as="geometry" />
        </mxCell>
        <mxCell id="w7mX2GBIEuvkQ30eatzn-26" value="&lt;font face=&quot;Verdana&quot; style=&quot;&quot;&gt;&lt;b style=&quot;&quot;&gt;&lt;span style=&quot;font-size: 16px;&quot;&gt;p&lt;/span&gt;&lt;span style=&quot;font-size: 11.1111px;&quot;&gt;3&lt;/span&gt;&lt;/b&gt;&lt;/font&gt;" style="rounded=0;whiteSpace=wrap;html=1;fillColor=#cce5ff;strokeColor=#1b1e22;" vertex="1" parent="1">
          <mxGeometry x="360" y="631" width="60" height="60" as="geometry" />
        </mxCell>
        <mxCell id="w7mX2GBIEuvkQ30eatzn-27" value="&lt;font face=&quot;Verdana&quot;&gt;&lt;span style=&quot;font-size: 16px;&quot;&gt;&lt;b&gt;data&lt;/b&gt;&lt;/span&gt;&lt;/font&gt;" style="rounded=0;whiteSpace=wrap;html=1;fillColor=#fff2cc;strokeColor=#141005;" vertex="1" parent="1">
          <mxGeometry x="180" y="691" width="60" height="60" as="geometry" />
        </mxCell>
        <mxCell id="w7mX2GBIEuvkQ30eatzn-28" value="&lt;font face=&quot;Verdana&quot;&gt;&lt;span style=&quot;font-size: 16px;&quot;&gt;&lt;b&gt;data&lt;/b&gt;&lt;/span&gt;&lt;/font&gt;" style="rounded=0;whiteSpace=wrap;html=1;fillColor=#fff2cc;strokeColor=#141005;" vertex="1" parent="1">
          <mxGeometry x="300" y="691" width="60" height="60" as="geometry" />
        </mxCell>
        <mxCell id="w7mX2GBIEuvkQ30eatzn-29" value="&lt;font size=&quot;1&quot; face=&quot;Verdana&quot;&gt;&lt;b style=&quot;font-size: 16px;&quot;&gt;Page3&lt;/b&gt;&lt;/font&gt;" style="text;html=1;align=center;verticalAlign=middle;resizable=0;points=[];autosize=1;strokeColor=none;fillColor=none;" vertex="1" parent="1">
          <mxGeometry x="100" y="571" width="80" height="30" as="geometry" />
        </mxCell>
        <mxCell id="w7mX2GBIEuvkQ30eatzn-30" value="" style="rounded=0;whiteSpace=wrap;html=1;" vertex="1" parent="1">
          <mxGeometry x="550" y="571" width="350" height="200" as="geometry" />
        </mxCell>
        <mxCell id="w7mX2GBIEuvkQ30eatzn-31" value="&lt;font face=&quot;Verdana&quot; style=&quot;font-size: 16px;&quot;&gt;&lt;b&gt;p&lt;sub&gt;1&lt;/sub&gt;&lt;/b&gt;&lt;/font&gt;" style="rounded=0;whiteSpace=wrap;html=1;fillColor=#cce5ff;strokeColor=#1b1e22;" vertex="1" parent="1">
          <mxGeometry x="570" y="631" width="60" height="60" as="geometry" />
        </mxCell>
        <mxCell id="w7mX2GBIEuvkQ30eatzn-32" value="&lt;font face=&quot;Verdana&quot;&gt;&lt;span style=&quot;font-size: 16px;&quot;&gt;&lt;b&gt;64&lt;/b&gt;&lt;/span&gt;&lt;/font&gt;" style="rounded=0;whiteSpace=wrap;html=1;fillColor=#d5e8d4;strokeColor=#121311;" vertex="1" parent="1">
          <mxGeometry x="630" y="631" width="60" height="60" as="geometry" />
        </mxCell>
        <mxCell id="w7mX2GBIEuvkQ30eatzn-33" value="&lt;font face=&quot;Verdana&quot; style=&quot;&quot;&gt;&lt;b style=&quot;&quot;&gt;&lt;span style=&quot;font-size: 16px;&quot;&gt;p&lt;/span&gt;&lt;span style=&quot;font-size: 13.3333px;&quot;&gt;&lt;sub&gt;2&lt;/sub&gt;&lt;/span&gt;&lt;/b&gt;&lt;/font&gt;" style="rounded=0;whiteSpace=wrap;html=1;fillColor=#cce5ff;strokeColor=#1b1e22;" vertex="1" parent="1">
          <mxGeometry x="690" y="631" width="60" height="60" as="geometry" />
        </mxCell>
        <mxCell id="w7mX2GBIEuvkQ30eatzn-34" value="&lt;font face=&quot;Verdana&quot;&gt;&lt;span style=&quot;font-size: 16px;&quot;&gt;&lt;b&gt;88&lt;/b&gt;&lt;/span&gt;&lt;/font&gt;" style="rounded=0;whiteSpace=wrap;html=1;fillColor=#d5e8d4;strokeColor=#121311;" vertex="1" parent="1">
          <mxGeometry x="750" y="631" width="60" height="60" as="geometry" />
        </mxCell>
        <mxCell id="w7mX2GBIEuvkQ30eatzn-35" value="&lt;font face=&quot;Verdana&quot; style=&quot;&quot;&gt;&lt;b style=&quot;&quot;&gt;&lt;span style=&quot;font-size: 16px;&quot;&gt;p&lt;/span&gt;&lt;span style=&quot;font-size: 11.1111px;&quot;&gt;3&lt;/span&gt;&lt;/b&gt;&lt;/font&gt;" style="rounded=0;whiteSpace=wrap;html=1;fillColor=#cce5ff;strokeColor=#1b1e22;" vertex="1" parent="1">
          <mxGeometry x="810" y="631" width="60" height="60" as="geometry" />
        </mxCell>
        <mxCell id="w7mX2GBIEuvkQ30eatzn-36" value="&lt;font face=&quot;Verdana&quot;&gt;&lt;span style=&quot;font-size: 16px;&quot;&gt;&lt;b&gt;data&lt;/b&gt;&lt;/span&gt;&lt;/font&gt;" style="rounded=0;whiteSpace=wrap;html=1;fillColor=#fff2cc;strokeColor=#141005;" vertex="1" parent="1">
          <mxGeometry x="630" y="691" width="60" height="60" as="geometry" />
        </mxCell>
        <mxCell id="w7mX2GBIEuvkQ30eatzn-37" value="&lt;font face=&quot;Verdana&quot;&gt;&lt;span style=&quot;font-size: 16px;&quot;&gt;&lt;b&gt;data&lt;/b&gt;&lt;/span&gt;&lt;/font&gt;" style="rounded=0;whiteSpace=wrap;html=1;fillColor=#fff2cc;strokeColor=#141005;" vertex="1" parent="1">
          <mxGeometry x="750" y="691" width="60" height="60" as="geometry" />
        </mxCell>
        <mxCell id="w7mX2GBIEuvkQ30eatzn-38" value="&lt;font size=&quot;1&quot; face=&quot;Verdana&quot;&gt;&lt;b style=&quot;font-size: 16px;&quot;&gt;Page4&lt;/b&gt;&lt;/font&gt;" style="text;html=1;align=center;verticalAlign=middle;resizable=0;points=[];autosize=1;strokeColor=none;fillColor=none;" vertex="1" parent="1">
          <mxGeometry x="550" y="571" width="80" height="30" as="geometry" />
        </mxCell>
        <mxCell id="w7mX2GBIEuvkQ30eatzn-39" value="" style="endArrow=classic;html=1;rounded=0;exitX=0.5;exitY=1;exitDx=0;exitDy=0;entryX=0.5;entryY=0;entryDx=0;entryDy=0;" edge="1" parent="1" source="w7mX2GBIEuvkQ30eatzn-9" target="w7mX2GBIEuvkQ30eatzn-21">
          <mxGeometry width="50" height="50" relative="1" as="geometry">
            <mxPoint x="430" y="650" as="sourcePoint" />
            <mxPoint x="480" y="600" as="targetPoint" />
          </mxGeometry>
        </mxCell>
        <mxCell id="w7mX2GBIEuvkQ30eatzn-40" value="" style="endArrow=classic;html=1;rounded=0;exitX=1.007;exitY=0.396;exitDx=0;exitDy=0;exitPerimeter=0;entryX=0.5;entryY=0;entryDx=0;entryDy=0;" edge="1" parent="1" source="w7mX2GBIEuvkQ30eatzn-9" target="w7mX2GBIEuvkQ30eatzn-30">
          <mxGeometry width="50" height="50" relative="1" as="geometry">
            <mxPoint x="430" y="650" as="sourcePoint" />
            <mxPoint x="480" y="600" as="targetPoint" />
          </mxGeometry>
        </mxCell>
        <mxCell id="w7mX2GBIEuvkQ30eatzn-41" value="&lt;font face=&quot;Verdana&quot;&gt;&lt;span style=&quot;font-size: 16px;&quot;&gt;&lt;b&gt;2&lt;/b&gt;&lt;/span&gt;&lt;/font&gt;" style="rounded=0;whiteSpace=wrap;html=1;fillColor=#d5e8d4;strokeColor=#121311;" vertex="1" parent="1">
          <mxGeometry x="-298" y="881" width="60" height="60" as="geometry" />
        </mxCell>
        <mxCell id="w7mX2GBIEuvkQ30eatzn-42" value="&lt;font face=&quot;Verdana&quot;&gt;&lt;span style=&quot;font-size: 16px;&quot;&gt;&lt;b&gt;4&lt;/b&gt;&lt;/span&gt;&lt;/font&gt;" style="rounded=0;whiteSpace=wrap;html=1;fillColor=#d5e8d4;strokeColor=#121311;" vertex="1" parent="1">
          <mxGeometry x="-238" y="881" width="60" height="60" as="geometry" />
        </mxCell>
        <mxCell id="w7mX2GBIEuvkQ30eatzn-43" value="&lt;font face=&quot;Verdana&quot;&gt;&lt;span style=&quot;font-size: 16px;&quot;&gt;&lt;b&gt;data&lt;/b&gt;&lt;/span&gt;&lt;/font&gt;" style="rounded=0;whiteSpace=wrap;html=1;fillColor=#fff2cc;strokeColor=#141005;" vertex="1" parent="1">
          <mxGeometry x="-298" y="941" width="60" height="60" as="geometry" />
        </mxCell>
        <mxCell id="w7mX2GBIEuvkQ30eatzn-44" value="&lt;font face=&quot;Verdana&quot;&gt;&lt;span style=&quot;font-size: 16px;&quot;&gt;&lt;b&gt;data&lt;/b&gt;&lt;/span&gt;&lt;/font&gt;" style="rounded=0;whiteSpace=wrap;html=1;fillColor=#fff2cc;strokeColor=#141005;" vertex="1" parent="1">
          <mxGeometry x="-238" y="941" width="60" height="60" as="geometry" />
        </mxCell>
        <mxCell id="w7mX2GBIEuvkQ30eatzn-46" value="&lt;font size=&quot;1&quot; face=&quot;Verdana&quot;&gt;&lt;b style=&quot;font-size: 16px;&quot;&gt;Page5&lt;/b&gt;&lt;/font&gt;" style="text;html=1;align=center;verticalAlign=middle;resizable=0;points=[];autosize=1;strokeColor=none;fillColor=none;" vertex="1" parent="1">
          <mxGeometry x="-368" y="841" width="80" height="30" as="geometry" />
        </mxCell>
        <mxCell id="w7mX2GBIEuvkQ30eatzn-47" value="" style="endArrow=classic;html=1;rounded=0;exitX=0.5;exitY=1;exitDx=0;exitDy=0;entryX=0.5;entryY=0;entryDx=0;entryDy=0;" edge="1" parent="1" source="w7mX2GBIEuvkQ30eatzn-12" target="w7mX2GBIEuvkQ30eatzn-45">
          <mxGeometry width="50" height="50" relative="1" as="geometry">
            <mxPoint x="-70" y="690" as="sourcePoint" />
            <mxPoint x="-20" y="640" as="targetPoint" />
          </mxGeometry>
        </mxCell>
        <mxCell id="w7mX2GBIEuvkQ30eatzn-48" value="" style="rounded=0;whiteSpace=wrap;html=1;" vertex="1" parent="1">
          <mxGeometry x="-105" y="840" width="220" height="180" as="geometry" />
        </mxCell>
        <mxCell id="w7mX2GBIEuvkQ30eatzn-49" value="&lt;font face=&quot;Verdana&quot;&gt;&lt;span style=&quot;font-size: 16px;&quot;&gt;&lt;b&gt;8&lt;/b&gt;&lt;/span&gt;&lt;/font&gt;" style="rounded=0;whiteSpace=wrap;html=1;fillColor=#d5e8d4;strokeColor=#121311;" vertex="1" parent="1">
          <mxGeometry x="-35" y="881" width="60" height="60" as="geometry" />
        </mxCell>
        <mxCell id="w7mX2GBIEuvkQ30eatzn-50" value="&lt;font face=&quot;Verdana&quot;&gt;&lt;span style=&quot;font-size: 16px;&quot;&gt;&lt;b&gt;10&lt;/b&gt;&lt;/span&gt;&lt;/font&gt;" style="rounded=0;whiteSpace=wrap;html=1;fillColor=#d5e8d4;strokeColor=#121311;" vertex="1" parent="1">
          <mxGeometry x="25" y="881" width="60" height="60" as="geometry" />
        </mxCell>
        <mxCell id="w7mX2GBIEuvkQ30eatzn-51" value="&lt;font face=&quot;Verdana&quot;&gt;&lt;span style=&quot;font-size: 16px;&quot;&gt;&lt;b&gt;data&lt;/b&gt;&lt;/span&gt;&lt;/font&gt;" style="rounded=0;whiteSpace=wrap;html=1;fillColor=#fff2cc;strokeColor=#141005;" vertex="1" parent="1">
          <mxGeometry x="-35" y="941" width="60" height="60" as="geometry" />
        </mxCell>
        <mxCell id="w7mX2GBIEuvkQ30eatzn-52" value="&lt;font face=&quot;Verdana&quot;&gt;&lt;span style=&quot;font-size: 16px;&quot;&gt;&lt;b&gt;data&lt;/b&gt;&lt;/span&gt;&lt;/font&gt;" style="rounded=0;whiteSpace=wrap;html=1;fillColor=#fff2cc;strokeColor=#141005;" vertex="1" parent="1">
          <mxGeometry x="25" y="941" width="60" height="60" as="geometry" />
        </mxCell>
        <mxCell id="w7mX2GBIEuvkQ30eatzn-53" value="&lt;font size=&quot;1&quot; face=&quot;Verdana&quot;&gt;&lt;b style=&quot;font-size: 16px;&quot;&gt;Page6&lt;/b&gt;&lt;/font&gt;" style="text;html=1;align=center;verticalAlign=middle;resizable=0;points=[];autosize=1;strokeColor=none;fillColor=none;" vertex="1" parent="1">
          <mxGeometry x="-105" y="841" width="80" height="30" as="geometry" />
        </mxCell>
        <mxCell id="w7mX2GBIEuvkQ30eatzn-54" value="" style="rounded=0;whiteSpace=wrap;html=1;" vertex="1" parent="1">
          <mxGeometry x="427" y="840" width="220" height="180" as="geometry" />
        </mxCell>
        <mxCell id="w7mX2GBIEuvkQ30eatzn-55" value="&lt;font face=&quot;Verdana&quot;&gt;&lt;span style=&quot;font-size: 16px;&quot;&gt;&lt;b&gt;53&lt;/b&gt;&lt;/span&gt;&lt;/font&gt;" style="rounded=0;whiteSpace=wrap;html=1;fillColor=#d5e8d4;strokeColor=#121311;" vertex="1" parent="1">
          <mxGeometry x="497" y="881" width="60" height="60" as="geometry" />
        </mxCell>
        <mxCell id="w7mX2GBIEuvkQ30eatzn-56" value="&lt;font face=&quot;Verdana&quot;&gt;&lt;span style=&quot;font-size: 16px;&quot;&gt;&lt;b&gt;60&lt;/b&gt;&lt;/span&gt;&lt;/font&gt;" style="rounded=0;whiteSpace=wrap;html=1;fillColor=#d5e8d4;strokeColor=#121311;" vertex="1" parent="1">
          <mxGeometry x="557" y="881" width="60" height="60" as="geometry" />
        </mxCell>
        <mxCell id="w7mX2GBIEuvkQ30eatzn-57" value="&lt;font face=&quot;Verdana&quot;&gt;&lt;span style=&quot;font-size: 16px;&quot;&gt;&lt;b&gt;data&lt;/b&gt;&lt;/span&gt;&lt;/font&gt;" style="rounded=0;whiteSpace=wrap;html=1;fillColor=#fff2cc;strokeColor=#141005;" vertex="1" parent="1">
          <mxGeometry x="497" y="941" width="60" height="60" as="geometry" />
        </mxCell>
        <mxCell id="w7mX2GBIEuvkQ30eatzn-58" value="&lt;font face=&quot;Verdana&quot;&gt;&lt;span style=&quot;font-size: 16px;&quot;&gt;&lt;b&gt;data&lt;/b&gt;&lt;/span&gt;&lt;/font&gt;" style="rounded=0;whiteSpace=wrap;html=1;fillColor=#fff2cc;strokeColor=#141005;" vertex="1" parent="1">
          <mxGeometry x="557" y="941" width="60" height="60" as="geometry" />
        </mxCell>
        <mxCell id="w7mX2GBIEuvkQ30eatzn-59" value="&lt;font size=&quot;1&quot; face=&quot;Verdana&quot;&gt;&lt;b style=&quot;font-size: 16px;&quot;&gt;Page8&lt;/b&gt;&lt;/font&gt;" style="text;html=1;align=center;verticalAlign=middle;resizable=0;points=[];autosize=1;strokeColor=none;fillColor=none;" vertex="1" parent="1">
          <mxGeometry x="427" y="841" width="80" height="30" as="geometry" />
        </mxCell>
        <mxCell id="w7mX2GBIEuvkQ30eatzn-60" value="" style="rounded=0;whiteSpace=wrap;html=1;" vertex="1" parent="1">
          <mxGeometry x="694" y="840" width="220" height="180" as="geometry" />
        </mxCell>
        <mxCell id="w7mX2GBIEuvkQ30eatzn-61" value="&lt;font face=&quot;Verdana&quot;&gt;&lt;span style=&quot;font-size: 16px;&quot;&gt;&lt;b&gt;70&lt;/b&gt;&lt;/span&gt;&lt;/font&gt;" style="rounded=0;whiteSpace=wrap;html=1;fillColor=#d5e8d4;strokeColor=#121311;" vertex="1" parent="1">
          <mxGeometry x="764" y="881" width="60" height="60" as="geometry" />
        </mxCell>
        <mxCell id="w7mX2GBIEuvkQ30eatzn-62" value="&lt;font face=&quot;Verdana&quot;&gt;&lt;span style=&quot;font-size: 16px;&quot;&gt;&lt;b&gt;80&lt;/b&gt;&lt;/span&gt;&lt;/font&gt;" style="rounded=0;whiteSpace=wrap;html=1;fillColor=#d5e8d4;strokeColor=#121311;" vertex="1" parent="1">
          <mxGeometry x="824" y="881" width="60" height="60" as="geometry" />
        </mxCell>
        <mxCell id="w7mX2GBIEuvkQ30eatzn-63" value="&lt;font face=&quot;Verdana&quot;&gt;&lt;span style=&quot;font-size: 16px;&quot;&gt;&lt;b&gt;data&lt;/b&gt;&lt;/span&gt;&lt;/font&gt;" style="rounded=0;whiteSpace=wrap;html=1;fillColor=#fff2cc;strokeColor=#141005;" vertex="1" parent="1">
          <mxGeometry x="764" y="941" width="60" height="60" as="geometry" />
        </mxCell>
        <mxCell id="w7mX2GBIEuvkQ30eatzn-64" value="&lt;font face=&quot;Verdana&quot;&gt;&lt;span style=&quot;font-size: 16px;&quot;&gt;&lt;b&gt;data&lt;/b&gt;&lt;/span&gt;&lt;/font&gt;" style="rounded=0;whiteSpace=wrap;html=1;fillColor=#fff2cc;strokeColor=#141005;" vertex="1" parent="1">
          <mxGeometry x="824" y="941" width="60" height="60" as="geometry" />
        </mxCell>
        <mxCell id="w7mX2GBIEuvkQ30eatzn-65" value="&lt;font size=&quot;1&quot; face=&quot;Verdana&quot;&gt;&lt;b style=&quot;font-size: 16px;&quot;&gt;Page9&lt;/b&gt;&lt;/font&gt;" style="text;html=1;align=center;verticalAlign=middle;resizable=0;points=[];autosize=1;strokeColor=none;fillColor=none;" vertex="1" parent="1">
          <mxGeometry x="694" y="841" width="80" height="30" as="geometry" />
        </mxCell>
        <mxCell id="w7mX2GBIEuvkQ30eatzn-66" value="" style="endArrow=classic;html=1;rounded=0;exitX=0.5;exitY=1;exitDx=0;exitDy=0;entryX=0.5;entryY=0;entryDx=0;entryDy=0;" edge="1" parent="1" source="w7mX2GBIEuvkQ30eatzn-14" target="w7mX2GBIEuvkQ30eatzn-48">
          <mxGeometry width="50" height="50" relative="1" as="geometry">
            <mxPoint x="190" y="820" as="sourcePoint" />
            <mxPoint x="240" y="770" as="targetPoint" />
          </mxGeometry>
        </mxCell>
        <mxCell id="w7mX2GBIEuvkQ30eatzn-67" value="" style="endArrow=classic;html=1;rounded=0;exitX=0.5;exitY=1;exitDx=0;exitDy=0;entryX=0.5;entryY=0;entryDx=0;entryDy=0;" edge="1" parent="1" source="w7mX2GBIEuvkQ30eatzn-24" target="w7mX2GBIEuvkQ30eatzn-68">
          <mxGeometry width="50" height="50" relative="1" as="geometry">
            <mxPoint x="280" y="820" as="sourcePoint" />
            <mxPoint x="330" y="770" as="targetPoint" />
          </mxGeometry>
        </mxCell>
        <mxCell id="w7mX2GBIEuvkQ30eatzn-68" value="" style="rounded=0;whiteSpace=wrap;html=1;" vertex="1" parent="1">
          <mxGeometry x="160" y="840" width="220" height="180" as="geometry" />
        </mxCell>
        <mxCell id="w7mX2GBIEuvkQ30eatzn-69" value="&lt;font face=&quot;Verdana&quot;&gt;&lt;span style=&quot;font-size: 16px;&quot;&gt;&lt;b&gt;28&lt;/b&gt;&lt;/span&gt;&lt;/font&gt;" style="rounded=0;whiteSpace=wrap;html=1;fillColor=#d5e8d4;strokeColor=#121311;" vertex="1" parent="1">
          <mxGeometry x="230" y="881" width="60" height="60" as="geometry" />
        </mxCell>
        <mxCell id="w7mX2GBIEuvkQ30eatzn-70" value="&lt;font face=&quot;Verdana&quot;&gt;&lt;span style=&quot;font-size: 16px;&quot;&gt;&lt;b&gt;29&lt;/b&gt;&lt;/span&gt;&lt;/font&gt;" style="rounded=0;whiteSpace=wrap;html=1;fillColor=#d5e8d4;strokeColor=#121311;" vertex="1" parent="1">
          <mxGeometry x="290" y="881" width="60" height="60" as="geometry" />
        </mxCell>
        <mxCell id="w7mX2GBIEuvkQ30eatzn-71" value="&lt;font face=&quot;Verdana&quot;&gt;&lt;span style=&quot;font-size: 16px;&quot;&gt;&lt;b&gt;data&lt;/b&gt;&lt;/span&gt;&lt;/font&gt;" style="rounded=0;whiteSpace=wrap;html=1;fillColor=#fff2cc;strokeColor=#141005;" vertex="1" parent="1">
          <mxGeometry x="230" y="941" width="60" height="60" as="geometry" />
        </mxCell>
        <mxCell id="w7mX2GBIEuvkQ30eatzn-72" value="&lt;font face=&quot;Verdana&quot;&gt;&lt;span style=&quot;font-size: 16px;&quot;&gt;&lt;b&gt;data&lt;/b&gt;&lt;/span&gt;&lt;/font&gt;" style="rounded=0;whiteSpace=wrap;html=1;fillColor=#fff2cc;strokeColor=#141005;" vertex="1" parent="1">
          <mxGeometry x="290" y="941" width="60" height="60" as="geometry" />
        </mxCell>
        <mxCell id="w7mX2GBIEuvkQ30eatzn-73" value="&lt;font size=&quot;1&quot; face=&quot;Verdana&quot;&gt;&lt;b style=&quot;font-size: 16px;&quot;&gt;Page7&lt;/b&gt;&lt;/font&gt;" style="text;html=1;align=center;verticalAlign=middle;resizable=0;points=[];autosize=1;strokeColor=none;fillColor=none;" vertex="1" parent="1">
          <mxGeometry x="160" y="841" width="80" height="30" as="geometry" />
        </mxCell>
        <mxCell id="w7mX2GBIEuvkQ30eatzn-74" value="" style="endArrow=classic;html=1;rounded=0;exitX=0.5;exitY=1;exitDx=0;exitDy=0;entryX=0.561;entryY=0;entryDx=0;entryDy=0;entryPerimeter=0;" edge="1" parent="1" source="w7mX2GBIEuvkQ30eatzn-31" target="w7mX2GBIEuvkQ30eatzn-54">
          <mxGeometry width="50" height="50" relative="1" as="geometry">
            <mxPoint x="530" y="820" as="sourcePoint" />
            <mxPoint x="580" y="770" as="targetPoint" />
          </mxGeometry>
        </mxCell>
        <mxCell id="w7mX2GBIEuvkQ30eatzn-75" value="" style="endArrow=classic;html=1;rounded=0;exitX=0.5;exitY=1;exitDx=0;exitDy=0;entryX=0.566;entryY=0;entryDx=0;entryDy=0;entryPerimeter=0;" edge="1" parent="1" source="w7mX2GBIEuvkQ30eatzn-33" target="w7mX2GBIEuvkQ30eatzn-60">
          <mxGeometry width="50" height="50" relative="1" as="geometry">
            <mxPoint x="530" y="820" as="sourcePoint" />
            <mxPoint x="580" y="770" as="targetPoint" />
          </mxGeometry>
        </mxCell>
      </root>
    </mxGraphModel>
  </diagram>
</mxfile>
